#!OML:ASF I:\Actors\actors\Patient Classification 2\Patient 1\Session 1\actor1.ASF
:FULLY-SPECIFIED
:DEGREES
984
root -1.07064 18.1039 5.61295 -2.24498 -2.50177 -4.06503
lowerback 2.55711 0.481077 2.98202
upperback 0.648235 0.737315 2.12329
thorax -0.759149 0.364591 0.481836
lowerneck -12.5101 -1.82202 -1.82047
upperneck 17.0863 -2.76685 3.32418
head 7.38102 -1.13742 1.10858
rclavicle -1.08934e-015 8.15017e-015
rhumerus -43.8188 -0.561648 -85.6234
rradius 41.3327
rwrist 19.1283
rhand -7.5078 -27.1755
rfingers 7.12502
rthumb 18.3824 -56.3269
lclavicle -1.08934e-015 8.15017e-015
lhumerus -41.0616 1.29991 91.7702
lradius 40.4109
lwrist -8.59109
lhand -3.11422 -24.331
lfingers 7.12502
lthumb 22.6043 4.36553
rfemur 0 0 0
rtibia 0
rfoot 0 0
rtoes 0
lfemur 19.5654 -7.78278 -12.9877
ltibia -17.4111
lfoot -4.63085 20.666
ltoes -8.23007
985
root -1.07145 18.1034 5.61284 -2.25209 -2.49101 -4.14746
lowerback 2.54579 0.476475 3.09884
upperback 0.656561 0.73313 2.09908
thorax -0.742503 0.362554 0.392014
lowerneck -12.4988 -1.83596 -1.88233
upperneck 17.1396 -2.79933 3.44976
head 7.40009 -1.14509 1.15671
rclavicle -4.43655e-015 -1.2921e-014
rhumerus -43.9544 -0.639708 -85.6997
rradius 41.312
rwrist 19.2001
rhand -7.66515 -27.1086
rfingers 7.12502
rthumb 18.231 -56.2742
lclavicle -4.43655e-015 -1.2921e-014
lhumerus -40.9541 1.2104 91.7768
lradius 40.4272
lwrist -8.48627
lhand -3.1485 -24.4335
lfingers 7.12502
lthumb 22.5714 4.26704
rfemur 0 0 0
rtibia 0
rfoot 0 0
rtoes 0
lfemur 19.6107 -7.77108 -12.887
ltibia -17.487
lfoot -4.64208 20.6323
ltoes -7.81925
986
root -1.07244 18.1031 5.61281 -2.25839 -2.48968 -4.19374
lowerback 2.57077 0.464459 3.17307
upperback 0.643063 0.720487 2.07241
thorax -0.76926 0.355746 0.323271
lowerneck -12.5008 -1.83507 -1.87194
upperneck 17.2252 -2.80514 3.46016
head 7.42859 -1.1455 1.15794
rclavicle -6.0413e-015 1.94809e-014
rhumerus -44.1445 -0.594397 -85.8148
rradius 41.324
rwrist 19.3592
rhand -8.41836 -26.552
rfingers 7.12502
rthumb 17.5063 -55.7838
lclavicle -6.0413e-015 1.94809e-014
lhumerus -40.8961 1.09956 91.8175
lradius 40.4722
lwrist -8.39357
lhand -3.19749 -24.3789
lfingers 7.12502
lthumb 22.5244 4.32731
rfemur 0 0 0
rtibia 0
rfoot 0 0
rtoes 0
lfemur 19.6508 -7.76261 -12.8264
ltibia -17.5513
lfoot -4.67654 20.6157
ltoes -7.51113
987
root -1.0736 18.1032 5.61258 -2.26188 -2.48433 -4.23549
lowerback 2.62064 0.447805 3.23129
upperback 0.615409 0.703104 2.05359
thorax -0.82492 0.346141 0.271388
lowerneck -12.5581 -1.85427 -1.86314
upperneck 17.3828 -2.83152 3.42635
head 7.4905 -1.15872 1.14258
rclavicle 1.50331e-015 1.2921e-014
rhumerus -44.3256 -0.545108 -85.9337
rradius 41.3104
rwrist 19.5864
rhand -9.11772 -26.1367
rfingers 7.12502
rthumb 16.8331 -55.4271
lclavicle 1.50331e-015 1.2921e-014
lhumerus -40.8905 0.97096 91.8926
lradius 40.5588
lwrist -8.30584
lhand -3.17539 -24.2099
lfingers 7.12502
lthumb 22.5456 4.49377
rfemur 0 0 0
rtibia 0
rfoot 0 0
rtoes 0
lfemur 19.6777 -7.74701 -12.7676
ltibia -17.5991
lfoot -4.6742 20.6062
ltoes -7.56355
988
root -1.07371 18.1038 5.6123 -2.24742 -2.48542 -4.27535
lowerback 2.6348 0.431494 3.27768
upperback 0.591625 0.684113 2.04602
thorax -0.85697 0.336018 0.238074
lowerneck -12.6065 -1.88493 -1.9211
upperneck 17.5274 -2.87017 3.44709
head 7.54876 -1.17736 1.1549
rclavicle -7.98284e-015 -2.5842e-015
rhumerus -44.4575 -0.503792 -86.0341
rradius 41.202
rwrist 19.6561
rhand -8.28744 -26.8365
rfingers 7.12502
rthumb 17.6322 -56.057
lclavicle -7.98284e-015 -2.5842e-015
lhumerus -40.8507 0.871309 91.9834
lradius 40.5673
lwrist -8.19938
lhand -3.17048 -24.0478
lfingers 7.12502
lthumb 22.5503 4.65525
rfemur 0 0 0
rtibia 0
rfoot 0 0
rtoes 0
lfemur 19.684 -7.72609 -12.7134
ltibia -17.637
lfoot -4.64937 20.597
ltoes -7.70718
989
root -1.07413 18.1036 5.61164 -2.21317 -2.5108 -4.31048
lowerback 2.61022 0.414678 3.28682
upperback 0.579925 0.661237 2.05533
thorax -0.855663 0.324503 0.243414
lowerneck -12.5981 -1.891 -1.95994
upperneck 17.56 -2.87212 3.44881
head 7.55858 -1.18058 1.16181
rclavicle -5.82047e-015 -9.74045e-015
rhumerus -44.5544 -0.405939 -86.1365
rradius 41.0819
rwrist 19.5891
rhand -7.42514 -27.4486
rfingers 7.12502
rthumb 18.4619 -56.5925
lclavicle -5.82047e-015 -9.74045e-015
lhumerus -40.7575 0.82614 92.0636
lradius 40.4925
lwrist -8.12488
lhand -3.15708 -24.0226
lfingers 7.12502
lthumb 22.5632 4.67887
rfemur 0 0 0
rtibia 0
rfoot 0 0
rtoes 0
lfemur 19.6743 -7.73375 -12.6614
ltibia -17.6796
lfoot -4.67535 20.6175
ltoes -7.19077
990
root -1.07561 18.1033 5.61123 -2.1894 -2.56359 -4.34361
lowerback 2.59986 0.405772 3.2742
upperback 0.571818 0.648948 2.07086
thorax -0.858749 0.318299 0.266844
lowerneck -12.5448 -1.86901 -1.98422
upperneck 17.5301 -2.8391 3.46174
head 7.53879 -1.1661 1.1738
rclavicle 3.62724e-015 -1.55052e-014
rhumerus -44.6716 -0.319813 -86.2357
rradius 41.0341
rwrist 19.5734
rhand -7.44281 -27.3732
rfingers 7.12502
rthumb 18.4449 -56.5187
lclavicle 3.62724e-015 -1.55052e-014
lhumerus -40.7444 0.836097 92.127
lradius 40.499
lwrist -8.1337
lhand -3.14716 -24.0767
lfingers 7.12502
lthumb 22.5727 4.6236
rfemur 0 0 0
rtibia 0
rfoot 0 0
rtoes 0
lfemur 19.6802 -7.70192 -12.6073
ltibia -17.7264
lfoot -4.66571 20.6258
ltoes -6.88406
991
root -1.07629 18.1031 5.61105 -2.17975 -2.60296 -4.37851
lowerback 2.61358 0.400503 3.28103
upperback 0.554466 0.643528 2.08102
thorax -0.884387 0.315157 0.273435
lowerneck -12.533 -1.84837 -2.04183
upperneck 17.5702 -2.80715 3.49657
head 7.55017 -1.15125 1.19822
rclavicle 1.53503e-014 -3.97569e-016
rhumerus -44.851 -0.257398 -86.3211
rradius 41.0739
rwrist 19.6153
rhand -7.302 -27.4115
rfingers 7.12502
rthumb 18.5803 -56.5441
lclavicle 1.53503e-014 -3.97569e-016
lhumerus -40.8139 0.804924 92.2199
lradius 40.5729
lwrist -8.16554
lhand -3.21664 -24.0417
lfingers 7.12502
lthumb 22.506 4.66677
rfemur 0 0 0
rtibia 0
rfoot 0 0
rtoes 0
lfemur 19.7004 -7.63869 -12.5562
ltibia -17.7732
lfoot -4.58979 20.5753
ltoes -7.19637
992
root -1.07572 18.103 5.61181 -2.15317 -2.65297 -4.42713
lowerback 2.58874 0.406535 3.32758
upperback 0.538981 0.65219 2.08683
thorax -0.885739 0.319241 0.253244
lowerneck -12.5601 -1.83662 -2.07854
upperneck 17.6516 -2.78447 3.49012
head 7.58143 -1.14254 1.20452
rclavicle 1.05185e-014 -2.44505e-014
rhumerus -45.03 -0.229006 -86.393
rradius 41.1139
rwrist 19.6805
rhand -7.01616 -27.6495
rfingers 7.12502
rthumb 18.8553 -56.7557
lclavicle 1.05185e-014 -2.44505e-014
lhumerus -40.8376 0.737031 92.3355
lradius 40.6004
lwrist -8.18349
lhand -3.25329 -23.8641
lfingers 7.12502
lthumb 22.4709 4.84862
rfemur 0 0 0
rtibia 0
rfoot 0 0
rtoes 0
lfemur 19.7099 -7.64205 -12.5069
ltibia -17.8071
lfoot -4.58493 20.5949
ltoes -7.26167
993
root -1.07455 18.1032 5.61421 -2.12151 -2.7464 -4.47191
lowerback 2.52447 0.421894 3.3773
upperback 0.543773 0.670493 2.08679
thorax -0.843862 0.328789 0.225411
lowerneck -12.5138 -1.81262 -2.09759
upperneck 17.6386 -2.75311 3.51749
head 7.56859 -1.12692 1.22018
rclavicle -1.0079e-014 -3.57812e-015
rhumerus -45.1494 -0.146365 -86.5149
rradius 41.0941
rwrist 19.6859
rhand -7.06539 -27.6774
rfingers 7.12502
rthumb 18.8079 -56.7882
lclavicle -1.0079e-014 -3.57812e-015
lhumerus -40.7909 0.772678 92.4187
lradius 40.5461
lwrist -8.17839
lhand -3.29084 -23.7045
lfingers 7.12502
lthumb 22.4348 5.01252
rfemur 0 0 0
rtibia 0
rfoot 0 0
rtoes 0
lfemur 19.7277 -7.67529 -12.4808
ltibia -17.8184
lfoot -4.636 20.7101
ltoes -7.33181
994
root -1.07369 18.104 5.61689 -2.10093 -2.83826 -4.48562
lowerback 2.46468 0.428938 3.37886
upperback 0.557718 0.67625 2.08058
thorax -0.795833 0.332329 0.218579
lowerneck -12.4491 -1.77421 -2.11971
upperneck 17.6071 -2.70856 3.58363
head 7.5466 -1.10194 1.25048
rclavicle -1.33508e-014 -1.59028e-015
rhumerus -45.2526 -0.0140646 -86.6673
rradius 41.0796
rwrist 19.6435
rhand -7.24469 -27.5187
rfingers 7.12502
rthumb 18.6355 -56.6461
lclavicle -1.33508e-014 -1.59028e-015
lhumerus -40.7524 0.83498 92.4761
lradius 40.4874
lwrist -8.12305
lhand -3.33866 -23.6683
lfingers 7.12502
lthumb 22.3889 5.05426
rfemur 0 0 0
rtibia 0
rfoot 0 0
rtoes 0
lfemur 19.744 -7.66617 -12.4818
ltibia -17.8155
lfoot -4.67439 20.7838
ltoes -7.52791
995
root -1.07284 18.104 5.61847 -2.09068 -2.90624 -4.46504
lowerback 2.45555 0.432968 3.33884
upperback 0.55046 0.680301 2.06909
thorax -0.798412 0.334338 0.229061
lowerneck -12.4309 -1.74596 -2.12364
upperneck 17.6589 -2.67084 3.58329
head 7.55919 -1.08405 1.25515
rclavicle 2.95304e-015 -9.74045e-015
rhumerus -45.3838 0.0385738 -86.7657
rradius 41.0533
rwrist 19.6756
rhand -7.31857 -27.4371
rfingers 7.12502
rthumb 18.5644 -56.5712
lclavicle 2.95304e-015 -9.74045e-015
lhumerus -40.7834 0.801707 92.5551
lradius 40.4963
lwrist -8.05746
lhand -3.29996 -23.709
lfingers 7.12502
lthumb 22.4261 5.00904
rfemur 0 0 0
rtibia 0
rfoot 0 0
rtoes 0
lfemur 19.7494 -7.67642 -12.5154
ltibia -17.8059
lfoot -4.74245 20.8565
ltoes -7.33563
996
root -1.07168 18.1029 5.6192 -2.08548 -2.95639 -4.4437
lowerback 2.48902 0.431711 3.29651
upperback 0.525132 0.680097 2.06129
thorax -0.843567 0.333604 0.244299
lowerneck -12.4012 -1.73549 -2.13587
upperneck 17.7135 -2.65118 3.55769
head 7.57099 -1.07783 1.25113
rclavicle 1.08858e-014 1.55052e-014
rhumerus -45.5138 0.0667273 -86.8367
rradius 40.9964
rwrist 19.7861
rhand -7.2573 -27.3878
rfingers 7.12502
rthumb 18.6233 -56.5163
lclavicle 1.08858e-014 1.55052e-014
lhumerus -40.8699 0.742254 92.6542
lradius 40.5458
lwrist -8.0314
lhand -3.22598 -23.7746
lfingers 7.12502
lthumb 22.4971 4.93488
rfemur 0 0 0
rtibia 0
rfoot 0 0
rtoes 0
lfemur 19.7552 -7.73009 -12.5586
ltibia -17.7891
lfoot -4.8216 20.9612
ltoes -7.06806
997
root -1.07123 18.1025 5.61983 -2.07041 -2.98989 -4.44738
lowerback 2.48733 0.418784 3.26629
upperback 0.51951 0.662217 2.06252
thorax -0.849104 0.324635 0.262985
lowerneck -12.3763 -1.72739 -2.16219
upperneck 17.7429 -2.64152 3.58542
head 7.57661 -1.07249 1.26583
rclavicle -6.47953e-015 1.23246e-014
rhumerus -45.5917 0.090768 -86.9006
rradius 40.9405
rwrist 19.9056
rhand -7.23703 -27.1891
rfingers 7.12502
rthumb 18.6428 -56.3158
lclavicle -6.47953e-015 1.23246e-014
lhumerus -40.9294 0.687269 92.7581
lradius 40.6029
lwrist -7.99519
lhand -3.2133 -23.7098
lfingers 7.12502
lthumb 22.5092 4.99823
rfemur 0 0 0
rtibia 0
rfoot 0 0
rtoes 0
lfemur 19.7496 -7.78265 -12.5688
ltibia -17.7789
lfoot -4.86981 21.0334
ltoes -7.04576
998
root -1.07068 18.1025 5.62086 -2.05564 -3.02524 -4.45613
lowerback 2.4552 0.39862 3.24072
upperback 0.531402 0.632579 2.05513
thorax -0.819662 0.310299 0.270916
lowerneck -12.3459 -1.69643 -2.15694
upperneck 17.7599 -2.61525 3.6572
head 7.57686 -1.05315 1.29146
rclavicle -1.74868e-015 2.18663e-015
rhumerus -45.6522 0.0674892 -86.966
rradius 40.8957
rwrist 20.0384
rhand -7.32551 -27.0442
rfingers 7.12502
rthumb 18.5577 -56.179
lclavicle -1.74868e-015 2.18663e-015
lhumerus -40.9568 0.628566 92.8301
lradius 40.6273
lwrist -7.95638
lhand -3.26961 -23.5975
lfingers 7.12502
lthumb 22.4552 5.11708
rfemur 0 0 0
rtibia 0
rfoot 0 0
rtoes 0
lfemur 19.7534 -7.82254 -12.5706
ltibia -17.7905
lfoot -4.88768 21.0876
ltoes -7.02717
999
root -1.06993 18.1023 5.62179 -2.05593 -3.05735 -4.47222
lowerback 2.44228 0.37682 3.22294
upperback 0.537524 0.602144 2.04849
thorax -0.806835 0.295312 0.275091
lowerneck -12.2955 -1.65859 -2.1622
upperneck 17.7894 -2.58372 3.75761
head 7.57794 -1.02946 1.32894
rclavicle -6.02954e-016 -1.59028e-015
rhumerus -45.7434 0.0637397 -87.0576
rradius 40.9284
rwrist 20.0385
rhand -7.22215 -27.2211
rfingers 7.12502
rthumb 18.6571 -56.3464
lclavicle -6.02954e-016 -1.59028e-015
lhumerus -41.0157 0.584643 92.878
lradius 40.6411
lwrist -7.97842
lhand -3.34631 -23.5947
lfingers 7.12502
lthumb 22.3816 5.12872
rfemur 0 0 0
rtibia 0
rfoot 0 0
rtoes 0
lfemur 19.778 -7.83038 -12.5621
ltibia -17.8077
lfoot -4.88577 21.1188
ltoes -6.98299
